<svg version="1.1" viewBox="0.0 0.0 208.03674540682414 191.41994750656167" fill="none" stroke="none" stroke-linecap="square" stroke-miterlimit="10" xmlns:xlink="http://www.w3.org/1999/xlink" xmlns="http://www.w3.org/2000/svg"><clipPath id="p.0"><path d="m0 0l208.03674 0l0 191.41995l-208.03674 0l0 -191.41995z" clip-rule="nonzero"/></clipPath><g clip-path="url(#p.0)"><path fill="#000000" fill-opacity="0.0" d="m0 0l208.03674 0l0 191.41995l-208.03674 0z" fill-rule="evenodd"/><path fill="#000000" fill-opacity="0.0" d="m19.532808 8.425184l-1.3858261 168.0315" fill-rule="evenodd"/><path stroke="#ffffff" stroke-width="16.0" stroke-linejoin="round" stroke-linecap="butt" d="m19.532808 8.425184l-1.3858261 168.0315" fill-rule="evenodd"/><path fill="#000000" fill-opacity="0.0" d="m16.467318 9.432561l148.94489 3.7795277" fill-rule="evenodd"/><path stroke="#ffffff" stroke-width="16.0" stroke-linejoin="round" stroke-linecap="butt" d="m16.467318 9.432561l148.94489 3.7795277" fill-rule="evenodd"/><path fill="#000000" fill-opacity="0.0" d="m22.703413 73.32928l59.433067 0" fill-rule="evenodd"/><path stroke="#ffffff" stroke-width="16.0" stroke-linejoin="round" stroke-linecap="butt" d="m22.703413 73.32928l59.433067 0" fill-rule="evenodd"/><path fill="#000000" fill-opacity="0.0" d="m161.83202 8.9838505l-67.40157 172.06299" fill-rule="evenodd"/><path stroke="#ffffff" stroke-width="16.0" stroke-linejoin="round" stroke-linecap="butt" d="m161.83202 8.9838505l-67.40157 172.06299" fill-rule="evenodd"/><path fill="#000000" fill-opacity="0.0" d="m88.91076 177.85165l110.015755 1.9212646" fill-rule="evenodd"/><path stroke="#ffffff" stroke-width="16.0" stroke-linejoin="round" stroke-linecap="butt" d="m88.91076 177.85165l110.015755 1.9212646" fill-rule="evenodd"/><path fill="#ffffff" d="m73.068245 73.34002l0 0c0 -4.0442886 3.546463 -7.322838 7.921257 -7.322838l0 0c4.374794 0 7.921257 3.2785492 7.921257 7.322838l0 0c0 4.0442886 -3.546463 7.32283 -7.921257 7.32283l0 0c-4.374794 0 -7.921257 -3.2785416 -7.921257 -7.32283z" fill-rule="evenodd"/><path fill="#ffffff" d="m152.59842 11.323431l0 0c0 -3.6007228 3.5464783 -6.5196853 7.9212646 -6.5196853l0 0c4.3747864 0 7.9212646 2.9189625 7.9212646 6.5196853l0 0c0 3.6007223 -3.5464783 6.5196857 -7.9212646 6.5196857l0 0c-4.3747864 0 -7.9212646 -2.9189634 -7.9212646 -6.5196857z" fill-rule="evenodd"/><path fill="#ffffff" d="m10.918635 9.225721l0 0c0 -4.0442896 3.5464687 -7.322834 7.92126 -7.322834l0 0c4.37479 0 7.921259 3.2785447 7.921259 7.322834l0 0c0 4.0442905 -3.5464687 7.322836 -7.921259 7.322836l0 0c-4.374791 0 -7.92126 -3.2785454 -7.92126 -7.322836z" fill-rule="evenodd"/><path fill="#ffffff" d="m18.170603 187.72966l0 0c-4.470462 0 -8.094487 -4.568817 -8.094487 -10.204727l0 0c0 -5.63591 3.6240253 -10.204727 8.094487 -10.204727l0 0c4.470463 0 8.094488 4.568817 8.094488 10.204727l0 0c0 5.63591 -3.6240253 10.204727 -8.094488 10.204727z" fill-rule="evenodd"/><path fill="#ffffff" d="m189.72704 179.81186l0 0c0 -4.3747864 3.546463 -7.9212646 7.9212646 -7.9212646l0 0c2.1008453 0 4.1156464 0.8345642 5.601166 2.3200836c1.4855347 1.4855347 2.3200836 3.5003357 2.3200836 5.601181l0 0c0 4.3747864 -3.546463 7.9212646 -7.9212494 7.9212646l0 0c-4.3748016 0 -7.9212646 -3.5464783 -7.9212646 -7.9212646z" fill-rule="evenodd"/><path fill="#ffffff" d="m86.44357 177.52776l0 0c0 -4.3747864 3.546463 -7.9212646 7.921257 -7.9212646l0 0c2.1008453 0 4.115654 0.8345642 5.6011734 2.3200836c1.485527 1.4855347 2.3200836 3.5003357 2.3200836 5.601181l0 0c0 4.3747864 -3.546463 7.9212646 -7.921257 7.9212646l0 0c-4.374794 0 -7.921257 -3.5464783 -7.921257 -7.9212646z" fill-rule="evenodd"/></g></svg>