<svg version="1.1" viewBox="0.0 0.0 793.0708661417323 198.26771653543307" fill="none" stroke="none" stroke-linecap="square" stroke-miterlimit="10" xmlns:xlink="http://www.w3.org/1999/xlink" xmlns="http://www.w3.org/2000/svg"><clipPath id="p.0"><path d="m0 0l793.07086 0l0 198.26772l-793.07086 0l0 -198.26772z" clip-rule="nonzero"/></clipPath><g clip-path="url(#p.0)"><path fill="#000000" fill-opacity="0.0" d="m0 0l793.07086 0l0 198.26772l-793.07086 0z" fill-rule="evenodd"/><path fill="#000000" fill-opacity="0.0" d="m23.64567 4.6377954l1.7952747 189.4488" fill-rule="evenodd"/><path stroke="#ffffff" stroke-width="8.0" stroke-linejoin="round" stroke-linecap="butt" d="m23.64567 4.6377954l1.7952747 189.4488" fill-rule="evenodd"/><path fill="#000000" fill-opacity="0.0" d="m23.64567 7.8031497l123.90551 4.5669293" fill-rule="evenodd"/><path stroke="#ffffff" stroke-width="8.0" stroke-linejoin="round" stroke-linecap="butt" d="m23.64567 7.8031497l123.90551 4.5669293" fill-rule="evenodd"/><path fill="#000000" fill-opacity="0.0" d="m143.20473 10.902887l60.094482 69.70079" fill-rule="evenodd"/><path stroke="#ffffff" stroke-width="8.0" stroke-linejoin="round" stroke-linecap="butt" d="m143.20473 10.902887l60.094482 69.70079" fill-rule="evenodd"/><path fill="#000000" fill-opacity="0.0" d="m203.30708 80.61155l4.692917 122.803154" fill-rule="evenodd"/><path stroke="#ffffff" stroke-width="8.0" stroke-linejoin="round" stroke-linecap="butt" d="m203.30708 80.61155l4.692917 122.803154" fill-rule="evenodd"/><path fill="#000000" fill-opacity="0.0" d="m209.4252 197.70341l11.43306 -114.4252" fill-rule="evenodd"/><path stroke="#ffffff" stroke-width="8.0" stroke-linejoin="round" stroke-linecap="butt" d="m209.4252 197.70341l11.43306 -114.4252" fill-rule="evenodd"/><path fill="#000000" fill-opacity="0.0" d="m220.4672 83.37795l59.40158 -74.64567" fill-rule="evenodd"/><path stroke="#ffffff" stroke-width="8.0" stroke-linejoin="round" stroke-linecap="butt" d="m220.4672 83.37795l59.40158 -74.64567" fill-rule="evenodd"/><path fill="#000000" fill-opacity="0.0" d="m279.8924 4.6062994l6.897644 190.70866" fill-rule="evenodd"/><path stroke="#ffffff" stroke-width="8.0" stroke-linejoin="round" stroke-linecap="butt" d="m279.8924 4.6062994l6.897644 190.70866" fill-rule="evenodd"/><path fill="#000000" fill-opacity="0.0" d="m281.3176 6.5433073l115.590546 190.4567" fill-rule="evenodd"/><path stroke="#ffffff" stroke-width="8.0" stroke-linejoin="round" stroke-linecap="butt" d="m281.3176 6.5433073l115.590546 190.4567" fill-rule="evenodd"/><path fill="#000000" fill-opacity="0.0" d="m397.62466 9.448819l-1.6377869 188.62991" fill-rule="evenodd"/><path stroke="#ffffff" stroke-width="8.0" stroke-linejoin="round" stroke-linecap="butt" d="m397.62466 9.448819l-1.6377869 188.62991" fill-rule="evenodd"/><path fill="#000000" fill-opacity="0.0" d="m395.98163 200.84514l72.8819 -190.67715" fill-rule="evenodd"/><path stroke="#ffffff" stroke-width="8.0" stroke-linejoin="round" stroke-linecap="butt" d="m395.98163 200.84514l72.8819 -190.67715" fill-rule="evenodd"/><path fill="#000000" fill-opacity="0.0" d="m468.86353 7.2703414l54.236206 183.90552" fill-rule="evenodd"/><path stroke="#ffffff" stroke-width="8.0" stroke-linejoin="round" stroke-linecap="butt" d="m468.86353 7.2703414l54.236206 183.90552" fill-rule="evenodd"/><path fill="#000000" fill-opacity="0.0" d="m438.16534 95.14173l56.661438 1.3858261" fill-rule="evenodd"/><path stroke="#ffffff" stroke-width="8.0" stroke-linejoin="round" stroke-linecap="butt" d="m438.16534 95.14173l56.661438 1.3858261" fill-rule="evenodd"/><path fill="#000000" fill-opacity="0.0" d="m630.24146 3.6351707l-7.0551147 187.55905" fill-rule="evenodd"/><path stroke="#ffffff" stroke-width="8.0" stroke-linejoin="round" stroke-linecap="butt" d="m630.24146 3.6351707l-7.0551147 187.55905" fill-rule="evenodd"/><path fill="#000000" fill-opacity="0.0" d="m623.2067 191.18898l-97.57477 -183.81104" fill-rule="evenodd"/><path stroke="#ffffff" stroke-width="8.0" stroke-linejoin="round" stroke-linecap="butt" d="m623.2067 191.18898l-97.57477 -183.81104" fill-rule="evenodd"/><path fill="#000000" fill-opacity="0.0" d="m524.3754 8.771653l-1.2598267 185.19685" fill-rule="evenodd"/><path stroke="#ffffff" stroke-width="8.0" stroke-linejoin="round" stroke-linecap="butt" d="m524.3754 8.771653l-1.2598267 185.19685" fill-rule="evenodd"/><path fill="#000000" fill-opacity="0.0" d="m23.787401 73.120735l80.56693 1.7637787" fill-rule="evenodd"/><path stroke="#ffffff" stroke-width="8.0" stroke-linejoin="round" stroke-linecap="butt" d="m23.787401 73.120735l80.56693 1.7637787" fill-rule="evenodd"/><path fill="#000000" fill-opacity="0.0" d="m633.147 6.5433073l123.74805 0.094488144" fill-rule="evenodd"/><path stroke="#ffffff" stroke-width="8.0" stroke-linejoin="round" stroke-linecap="butt" d="m633.147 6.5433073l123.74805 0.094488144" fill-rule="evenodd"/><path fill="#000000" fill-opacity="0.0" d="m754.06036 5.2283463l-72.69293 188.18898" fill-rule="evenodd"/><path stroke="#ffffff" stroke-width="8.0" stroke-linejoin="round" stroke-linecap="butt" d="m754.06036 5.2283463l-72.69293 188.18898" fill-rule="evenodd"/><path fill="#000000" fill-opacity="0.0" d="m678.2441 191.17061l108.28351 -1.448822" fill-rule="evenodd"/><path stroke="#ffffff" stroke-width="8.0" stroke-linejoin="round" stroke-linecap="butt" d="m678.2441 191.17061l108.28351 -1.448822" fill-rule="evenodd"/></g></svg>