<svg version="1.1" viewBox="0.0 0.0 795.2572178477691 205.40944881889763" fill="none" stroke="none" stroke-linecap="square" stroke-miterlimit="10" xmlns:xlink="http://www.w3.org/1999/xlink" xmlns="http://www.w3.org/2000/svg"><clipPath id="p.0"><path d="m0 0l795.2572 0l0 205.40945l-795.2572 0l0 -205.40945z" clip-rule="nonzero"/></clipPath><g clip-path="url(#p.0)"><path fill="#000000" fill-opacity="0.0" d="m0 0l795.2572 0l0 205.40945l-795.2572 0z" fill-rule="evenodd"/><path fill="#000000" fill-opacity="0.0" d="m23.64567 8.76378l91.2126 182.3937" fill-rule="evenodd"/><path stroke="#ffffff" stroke-width="8.0" stroke-linejoin="round" stroke-linecap="butt" d="m23.64567 8.76378l91.2126 182.3937" fill-rule="evenodd"/><path fill="#000000" fill-opacity="0.0" d="m23.64567 4.6062994l120.251976 -1.3858271" fill-rule="evenodd"/><path stroke="#ffffff" stroke-width="8.0" stroke-linejoin="round" stroke-linecap="butt" d="m23.64567 4.6062994l120.251976 -1.3858271" fill-rule="evenodd"/><path fill="#000000" fill-opacity="0.0" d="m145.25984 3.2257218l58.04724 77.385826" fill-rule="evenodd"/><path stroke="#ffffff" stroke-width="8.0" stroke-linejoin="round" stroke-linecap="butt" d="m145.25984 3.2257218l58.04724 77.385826" fill-rule="evenodd"/><path fill="#000000" fill-opacity="0.0" d="m203.30708 80.61155l4.692917 122.803154" fill-rule="evenodd"/><path stroke="#ffffff" stroke-width="8.0" stroke-linejoin="round" stroke-linecap="butt" d="m203.30708 80.61155l4.692917 122.803154" fill-rule="evenodd"/><path fill="#000000" fill-opacity="0.0" d="m209.4252 197.70341l11.43306 -114.4252" fill-rule="evenodd"/><path stroke="#ffffff" stroke-width="8.0" stroke-linejoin="round" stroke-linecap="butt" d="m209.4252 197.70341l11.43306 -114.4252" fill-rule="evenodd"/><path fill="#000000" fill-opacity="0.0" d="m220.4672 83.37795l58.015747 -82.89764" fill-rule="evenodd"/><path stroke="#ffffff" stroke-width="8.0" stroke-linejoin="round" stroke-linecap="butt" d="m220.4672 83.37795l58.015747 -82.89764" fill-rule="evenodd"/><path fill="#000000" fill-opacity="0.0" d="m279.8924 4.6062994l6.897644 190.70866" fill-rule="evenodd"/><path stroke="#ffffff" stroke-width="8.0" stroke-linejoin="round" stroke-linecap="butt" d="m279.8924 4.6062994l6.897644 190.70866" fill-rule="evenodd"/><path fill="#000000" fill-opacity="0.0" d="m286.79004 195.31496l106.42517 -183.81102" fill-rule="evenodd"/><path stroke="#ffffff" stroke-width="8.0" stroke-linejoin="round" stroke-linecap="butt" d="m286.79004 195.31496l106.42517 -183.81102" fill-rule="evenodd"/><path fill="#000000" fill-opacity="0.0" d="m394.5958 12.897637l1.3858337 185.19684" fill-rule="evenodd"/><path stroke="#ffffff" stroke-width="8.0" stroke-linejoin="round" stroke-linecap="butt" d="m394.5958 12.897637l1.3858337 185.19684" fill-rule="evenodd"/><path fill="#000000" fill-opacity="0.0" d="m395.98163 200.84514l74.61417 -91.21259" fill-rule="evenodd"/><path stroke="#ffffff" stroke-width="8.0" stroke-linejoin="round" stroke-linecap="butt" d="m395.98163 200.84514l74.61417 -91.21259" fill-rule="evenodd"/><path fill="#000000" fill-opacity="0.0" d="m470.60367 112.39895l52.503937 78.77166" fill-rule="evenodd"/><path stroke="#ffffff" stroke-width="8.0" stroke-linejoin="round" stroke-linecap="butt" d="m470.60367 112.39895l52.503937 78.77166" fill-rule="evenodd"/><path fill="#000000" fill-opacity="0.0" d="m437.43832 151.09448l56.661407 1.3858337" fill-rule="evenodd"/><path stroke="#ffffff" stroke-width="8.0" stroke-linejoin="round" stroke-linecap="butt" d="m437.43832 151.09448l56.661407 1.3858337" fill-rule="evenodd"/><path fill="#000000" fill-opacity="0.0" d="m629.5302 0.48031497l-6.3307495 190.70866" fill-rule="evenodd"/><path stroke="#ffffff" stroke-width="8.0" stroke-linejoin="round" stroke-linecap="butt" d="m629.5302 0.48031497l-6.3307495 190.70866" fill-rule="evenodd"/><path fill="#000000" fill-opacity="0.0" d="m623.2067 191.18898l-97.57477 -183.81104" fill-rule="evenodd"/><path stroke="#ffffff" stroke-width="8.0" stroke-linejoin="round" stroke-linecap="butt" d="m623.2067 191.18898l-97.57477 -183.81104" fill-rule="evenodd"/><path fill="#000000" fill-opacity="0.0" d="m524.3754 8.771653l-1.2598267 185.19685" fill-rule="evenodd"/><path stroke="#ffffff" stroke-width="8.0" stroke-linejoin="round" stroke-linecap="butt" d="m524.3754 8.771653l-1.2598267 185.19685" fill-rule="evenodd"/><path fill="#000000" fill-opacity="0.0" d="m56.81365 70.93964l59.43307 0" fill-rule="evenodd"/><path stroke="#ffffff" stroke-width="8.0" stroke-linejoin="round" stroke-linecap="butt" d="m56.81365 70.93964l59.43307 0" fill-rule="evenodd"/><path fill="#000000" fill-opacity="0.0" d="m632.8714 3.8031497l124.031494 2.8661418" fill-rule="evenodd"/><path stroke="#ffffff" stroke-width="8.0" stroke-linejoin="round" stroke-linecap="butt" d="m632.8714 3.8031497l124.031494 2.8661418" fill-rule="evenodd"/><path fill="#000000" fill-opacity="0.0" d="m754.06036 5.2283463l-72.69293 188.18898" fill-rule="evenodd"/><path stroke="#ffffff" stroke-width="8.0" stroke-linejoin="round" stroke-linecap="butt" d="m754.06036 5.2283463l-72.69293 188.18898" fill-rule="evenodd"/><path fill="#000000" fill-opacity="0.0" d="m678.2441 191.17061l109.63782 4.1574707" fill-rule="evenodd"/><path stroke="#ffffff" stroke-width="8.0" stroke-linejoin="round" stroke-linecap="butt" d="m678.2441 191.17061l109.63782 4.1574707" fill-rule="evenodd"/><path fill="#000000" fill-opacity="0.0" d="m2.695538 183.17061l109.637794 4.1574707" fill-rule="evenodd"/><path stroke="#ffffff" stroke-width="8.0" stroke-linejoin="round" stroke-linecap="butt" d="m2.695538 183.17061l109.637794 4.1574707" fill-rule="evenodd"/></g></svg>